<svg width="27" height="28" viewBox="0 0 27 28" fill="none" xmlns="http://www.w3.org/2000/svg">
<path d="M12.3195 12.7583H12.3253M14.6128 9.1722V7.97685C14.6128 7.65982 14.492 7.35578 14.277 7.13161C14.0619 6.90743 13.7703 6.78149 13.4662 6.78149H11.1729C10.8688 6.78149 10.5772 6.90743 10.3621 7.13161C10.1471 7.35578 10.0263 7.65982 10.0263 7.97685V9.1722M18.0527 13.3559C16.3515 14.5268 14.358 15.151 12.3195 15.151C10.2811 15.151 8.28756 14.5268 6.58643 13.3559M7.73305 9.1722H16.906C17.5393 9.1722 18.0527 9.70738 18.0527 10.3676V16.3443C18.0527 17.0045 17.5393 17.5397 16.906 17.5397H7.73305C7.09979 17.5397 6.58643 17.0045 6.58643 16.3443V10.3676C6.58643 9.70738 7.09979 9.1722 7.73305 9.1722Z" stroke="#6300B3" stroke-width="1.00962" stroke-linecap="round" stroke-linejoin="round"/>
<path d="M24.9325 25.9071L19.4542 20.196M22.3844 12.6254C22.3844 18.4936 17.8212 23.2508 12.1922 23.2508C6.56321 23.2508 2 18.4936 2 12.6254C2 6.75714 6.56321 2 12.1922 2C17.8212 2 22.3844 6.75714 22.3844 12.6254Z" stroke="#6300B3" stroke-width="2.39071" stroke-linecap="round" stroke-linejoin="round"/>
</svg>
